<svg id="Layer_1" data-name="Layer 1" xmlns="http://www.w3.org/2000/svg" xmlns:xlink="http://www.w3.org/1999/xlink" viewBox="0 0 2238 1069"><defs><style>.cls-1{fill:none;}.cls-2{clip-path:url(#clip-path);}.cls-3{fill:red;}.cls-4{clip-path:url(#clip-path-2);}</style><clipPath id="clip-path"><rect class="cls-1" x="130.16" y="326.93" width="1977.37" height="415.28"/></clipPath><clipPath id="clip-path-2"><rect class="cls-1" x="130.16" y="326.93" width="1977.37" height="415.28"/></clipPath></defs><g id="Artwork_17" data-name="Artwork 17"><g class="cls-2"><polygon class="cls-3" points="424.43 327.16 349.77 657.04 173.48 657.04 151.06 700.66 139.78 722.43 130.16 739.92 449.69 739.78 530.82 383.71 530.67 383.71 543.57 327.16 424.43 327.16"/><polygon class="cls-3" points="1413.34 326.93 930.75 327.2 869.49 439.82 1050.85 439.82 989.04 686.44 988.92 686.44 976.64 739.77 1092.82 739.77 1167.37 439.82 1300.22 439.82 1333.38 406.84 1211.62 406.84 1226.91 391.59 1348.69 391.59 1357.33 382.97 1357.3 382.97 1370.86 369.42 1250.45 369.42 1265.9 354.15 1386.13 354.15 1413.34 326.93"/><g class="cls-4"><path class="cls-3" d="M874.36,652.6s36.85-51.05,44.4-115.34l-82.19-23.61S825.2,577.9,814.83,579.8c0,0-75.64-57.53-104.15-106.22a58.65,58.65,0,0,1-9.51-22.29,43.81,43.81,0,0,1-1.14-6.81,29.77,29.77,0,0,1,.12-5.75A58.16,58.16,0,0,1,758.26,382c26.3,0,52.2,12.13,50.38,36.14.46.62-1.52,21.76-1.1,22.42l62.34-113.45H604.37s.13.36-11.4,51.05c0,0-12.58,57.08,41.3,117.55,0,0-160.36,99.6-70.18,205.36,0,0,45.28,42.18,135.21,40.43,0,0,59.85,0,115.53-26.47l22.86,24.68H945.57Zm-224-1.91c-42.55-46.3,35-85.07,39.71-90.73l76.09,90.73s-73.28,46.34-115.8,0"/><polygon class="cls-3" points="1311.13 671.02 1253.41 671.02 1245.96 710.23 1310.66 710.23 1305.13 739.81 1205.79 739.81 1236.57 577.71 1332.54 577.71 1326.76 607.29 1265.68 607.29 1258.94 641.92 1316.66 641.92 1311.13 671.02"/><path class="cls-3" d="M1413.12,739.81l-11.06-32.71c-3.13-9.86-5.77-17.56-8.66-27.66h-.48c-5.28,9.14-9.62,17.31-16.59,28.86l-19,31.51h-41.6l60.6-82.73L1348,577.71h36.56l9.86,31c2.88,10.11,5.05,17.32,7.46,26.94h.71c6-11.06,10.1-18.76,15.39-27.42l18.76-30.54h41.37l-59.17,79.6,31,82.5Z"/><path class="cls-3" d="M1497.07,580.84c10.35-2.65,26.71-4.34,42.34-4.34,14.42,0,31.26,2.42,43,10.83,10.82,7.46,17.56,18.76,17.56,34.39,0,20.44-9.38,35.83-22.13,45.69-13.22,10.34-32,14.92-51.7,14.92a105,105,0,0,1-14.2-1l-11.06,58.45H1467Zm20.21,72.38a62.85,62.85,0,0,0,13.23,1.21c20.92,0,34.63-13.47,34.63-29.58,0-15.63-11.31-20.68-24.77-20.68-6.49,0-11.06.47-14,1.2Z"/><path class="cls-3" d="M1633.21,580.84c10.84-2.65,27.18-4.34,43.29-4.34,15.4,0,31.27,2.42,42.57,9.39,10.58,6.25,18,16.59,18,31.75,0,24.05-16.12,39-36.81,45.69v1c9.62,4.08,13.72,14.92,15.4,29.58,1.92,18,3.36,39.2,6.25,45.94h-35.59c-1.44-4.34-3.13-18.28-4.82-38.25-1.43-19.71-8.18-25.73-21.87-25.73h-10.59l-12,64h-34.38Zm20.93,69h14.42c18.77,0,32.47-11.3,32.47-27.17,0-13-11.06-18.77-24.76-18.77-6.5,0-10.59.49-13.47,1.21Z"/><polygon class="cls-3" points="1848.25 671.02 1790.53 671.02 1783.07 710.23 1847.76 710.23 1842.23 739.81 1742.9 739.81 1773.69 577.71 1869.64 577.71 1863.88 607.29 1802.79 607.29 1796.06 641.92 1853.77 641.92 1848.25 671.02"/><path class="cls-3" d="M1874.23,702.29a76.32,76.32,0,0,0,38.24,10.34c13.47,0,25.74-6.25,25.74-19,0-9.14-7-15.16-21.9-22.85-17.32-9.37-33.66-21.89-33.66-43,0-32.71,28.62-52.68,64-52.68,19.72,0,31.26,4.33,38.23,8.18L1974,612.1a64.58,64.58,0,0,0-30.3-7.22c-16.12,0-24.53,8.18-24.53,17.08,0,9.38,9.85,15.15,23.56,22.85,19.73,10.34,32.23,23.56,32.23,42.8,0,36.08-29.82,54.6-65.91,54.6-22.6,0-38.72-5.77-46.41-11.54Z"/><path class="cls-3" d="M1996.9,702.29a76.29,76.29,0,0,0,38.24,10.34c13.47,0,25.74-6.25,25.74-19,0-9.14-7-15.16-21.9-22.85-17.31-9.37-33.66-21.89-33.66-43,0-32.71,28.63-52.68,64-52.68,19.71,0,31.25,4.33,38.22,8.18L2096.7,612.1a64.49,64.49,0,0,0-30.29-7.22c-16.12,0-24.53,8.18-24.53,17.08,0,9.38,9.85,15.15,23.57,22.85,19.72,10.34,32.23,23.56,32.23,42.8,0,36.08-29.83,54.6-65.91,54.6-22.6,0-38.72-5.77-46.41-11.54Z"/></g></g></g></svg>